# xmcd
#
# Track frame offsets:
#	150
#	12325
#	31872
#	52455
#	65114
#	78572
#	100968
#	113164
#	132699
#	153115
#	165760
#	179147
#
# Disc length: 2688 seconds
#
# Revision: 1
# Processed by: cddbd v1.5.2PL0 Copyright (c) Steve Scherf et al.
# Submitted via: audiograbber 1.83.01
#
DISCID=a50a7e0c
DTITLE=Daywind - The Goodmans Vol 2
DYEAR=1994
DGENRE=Karaoke
TTITLE0=He Said Peace
TTITLE1=Leavin On My Mind
TTITLE2=Pass Me Not
TTITLE3=Somebody Touched God For Me
TTITLE4=When God's Chariot Comes
TTITLE5=Who Am I
TTITLE6=He Said Peace (vocal) 
TTITLE7=Leavin On My Mind (vocal)
TTITLE8=Pass Me Not (vocal)
TTITLE9=Somebody Touched God For Me (vocal)
TTITLE10=When God's Chariot Comes (vocal)
TTITLE11=Who Am I (vocal)
EXTD=
EXTT0=
EXTT1=
EXTT2=
EXTT3=
EXTT4=
EXTT5=
EXTT6=
EXTT7=
EXTT8=
EXTT9=
EXTT10=
EXTT11=
PLAYORDER=
